# xmcd
#
# Track frame offsets:
# 150
# 21345
# 45285
# 60505
# 81775
# 98287
# 124097
# 143407
# 164117
# 186055
# 205440
# 226062
#
# Disc length: 3513 seconds
#
#
# Revision: 0
# Processed by: cddbd v1.5.2PL0 Copyright (c) Steve Scherf et al.
# Submitted via: FreeRIP 2.944 
#
DISCID=910db70c
DTITLE=Cross Canadian Ragweed - Cross Canadian Ragweed
DYEAR=2002
DGENRE=Country
TTITLE0=Anywhere But Here
TTITLE1=17
TTITLE2=Brooklyn Kid
TTITLE3=Don't Need You
TTITLE4=Walls Of Huntsville
TTITLE5=Broken
TTITLE6=Constantly
TTITLE7=Suicide Blues
TTITLE8=Other Side
TTITLE9=On A Cloud
TTITLE10=Carry You Home
TTITLE11=Freedom
EXTD=
EXTT0=
EXTT1=
EXTT2=
EXTT3=
EXTT4=
EXTT5=
EXTT6=
EXTT7=
EXTT8=
EXTT9=
EXTT10=
EXTT11=
PLAYORDER=
